PathFileType	4	(X/Y/Z)	F:\MotionCapture\20160217\3\Generated_files\EMG_test05-Dynamic.trc
DataRate	CameraRate	NumFrames	NumMarkers	Units	OrigDataRate	OrigDataStartFrame	OrigNumFrames
120.00	120.00	       7	39	mm	120.00	358	       714
Frame#	Time	Top.Head			Front.Head			Rear.Head			R.Shoulder			R.Offset			R.Elbow			R.Wrist			L.Shoulder			L.Elbow			L.Wrist			R.ASIS			L.ASIS			V.Sacral			R.Thigh			R.Knee			R.Shank			R.Ankle			R.Heel			R.Toe			L.Thigh			L.Knee			L.Shank			L.Ankle			L.Heel			L.Toe			R1			R2			R3			R4			R5			R6			R7			L1			L2			L3			L4			L5			L6			L7			V_Mid_ASIS			V_Pelvis_Origin			V_R.Hip_JC			V_L.Hip_JC			V_R.Knee_JC			V_L.Knee_JC			V_R.Ankle_JC			V_L.Ankle_JC			V_Mid_Hip			V_Mid_Shoulder			V_R.Hand			V_L.Hand			V_R.Toe_Offset_Static			V_L.Toe_Offset_Static			V_R.Toe_Offset			V_L.Toe_Offset			
		X1	Y1	Z1	X2	Y2	Z2	X3	Y3	Z3	X4	Y4	Z4	X5	Y5	Z5	X6	Y6	Z6	X7	Y7	Z7	X8	Y8	Z8	X9	Y9	Z9	X10	Y10	Z10	X11	Y11	Z11	X12	Y12	Z12	X13	Y13	Z13	X14	Y14	Z14	X15	Y15	Z15	X16	Y16	Z16	X17	Y17	Z17	X18	Y18	Z18	X19	Y19	Z19	X20	Y20	Z20	X21	Y21	Z21	X22	Y22	Z22	X23	Y23	Z23	X24	Y24	Z24	X25	Y25	Z25	X26	Y26	Z26	X27	Y27	Z27	X28	Y28	Z28	X29	Y29	Z29	X30	Y30	Z30	X31	Y31	Z31	X32	Y32	Z32	X33	Y33	Z33	X34	Y34	Z34	X35	Y35	Z35	X36	Y36	Z36	X37	Y37	Z37	X38	Y38	Z38	X39	Y39	Z39	

358	2.975	-349.46609	103.77867	1699.36389	-234.30699	108.19657	1621.11853	-455.01147	111.30634	1625.78064	-382.41171	-83.82680	1386.80139	-519.46381	182.04990	1243.40723	-370.13623	-186.84515	1061.46240	-171.81889	-163.07552	892.09729	-381.22464	324.39056	1397.20300	-480.80655	444.85760	1108.28430	-463.69147	507.72983	857.69763	-322.00967	-23.88669	905.95801	-288.03003	259.83551	927.89996	-525.37561	153.40318	909.86688	-303.85159	-17.82233	523.17340	-404.79700	-45.40549	423.78659	-570.31708	45.09539	261.70862	-746.15216	6.08183	209.03336	-773.03168	78.93802	260.72610	-737.70929	29.33387	59.57853	-172.56122	212.09535	644.64972	-205.59639	261.55951	466.01770	-183.36276	177.69522	329.89639	-225.84328	234.20607	59.07163	-290.44574	177.36389	41.52515	-85.25320	223.03352	40.24970	-708.96747	44.66866	26.42137	-717.49896	63.36313	59.79765	-717.03345	90.81789	153.98624	-750.60651	104.66614	217.20667	-780.02136	35.02956	231.27919	-777.42590	4.37982	153.74315	-767.43237	-4.26264	86.92426	-41.56605	193.84184	33.96570	-72.64261	183.62509	43.49525	-169.38751	141.55289	48.20534	-252.19582	143.68646	42.24027	-261.28177	216.20131	37.99805	-189.51254	242.91917	32.38605	-125.68732	255.68518	37.43887																																																	4081.17480	-1691.65979	1019.14526	
359	2.983	-337.70468	104.08012	1701.78711	-221.94823	108.37112	1623.33057	-442.87958	111.43195	1628.46643	-371.11691	-83.42909	1389.20129	-508.20581	182.53961	1245.85059	-361.05200	-185.36209	1063.32959	-166.10536	-163.51108	889.76080	-369.35657	324.68701	1399.81372	-465.07001	445.41525	1109.03210	-443.76889	506.49481	858.80573	-310.82761	-23.07246	908.58521	-276.99045	261.41296	930.06726	-514.71295	153.61060	911.97894	-283.79407	-17.95093	526.78552	-380.94928	-46.86085	425.81650	-546.92780	44.26050	265.04648	-723.52423	7.08570	216.20265	-746.18219	79.49065	268.61792	-722.43036	26.99334	66.63334	-165.28122	213.63737	643.34106	-201.50790	262.46286	465.46915	-180.92339	178.46887	329.36331	-226.18066	234.18010	58.93376	-290.53726	177.29446	41.49744	-85.41643	223.19910	40.27543	-700.88312	35.05140	30.08318	-703.14124	59.52544	64.13780	-696.29413	91.03280	158.88377	-725.20221	105.73792	223.40706	-756.10419	36.46013	239.51823	-757.57257	6.14662	162.63069	-752.96710	-3.42427	95.21956	-41.81301	193.95964	33.83049	-72.80303	183.69191	43.42293	-169.42923	141.66606	48.26287	-252.19096	143.69484	42.23611	-261.47485	216.16945	37.99298	-189.68118	242.98441	32.31978	-126.00584	255.94574	37.39673	
360	2.992	-325.41760	104.24088	1704.13464	-210.50806	108.44259	1625.42871	-431.14307	111.55522	1630.85095	-360.37198	-83.43828	1391.32996	-496.92572	182.94128	1248.39075	-352.28778	-184.50836	1065.09595	-160.08191	-164.41495	887.44489	-357.30084	324.82813	1402.53528	-449.91721	446.03751	1109.94141	-422.95163	505.14636	859.64117	-299.74667	-22.08922	911.19293	-266.29507	262.73483	932.11951	-504.34631	153.84956	914.03827	-263.48621	-18.15494	531.09967	-357.01700	-48.02354	428.58472	-523.95239	44.60363	269.23749	-700.79724	8.12374	222.60739	-720.01080	81.37872	274.16238	-705.77478	23.90585	72.52195	-159.53511	213.51054	642.81055	-198.43138	263.33246	465.28516	-179.02451	178.99345	328.46390	-226.29704	234.10373	58.93028	-290.65613	177.29057	41.47986	-85.42879	223.30405	40.33435	-685.58405	27.20194	38.27991	-685.81030	55.13273	68.21668	-674.00720	90.96627	162.86053	-701.14960	107.05753	228.01857	-732.89307	38.59869	246.60367	-736.59033	7.45601	169.76364	-734.36133	-3.69519	102.52714	-41.93530	194.10178	33.81417	-72.82384	183.91684	43.41829	-169.36690	141.94485	48.15928	-252.21950	143.70499	42.21743	-261.63443	216.10307	38.05581	-189.79266	243.07251	32.33480	-126.17909	256.20328	37.42982	
361	3.000	-313.32877	104.35291	1706.49146	-198.58936	108.85352	1627.68994	-419.14542	111.24966	1633.42029	-349.12146	-83.25056	1393.61792	-485.73672	183.72975	1251.31250	-343.32324	-183.37863	1066.98450	-154.64433	-165.19218	885.35883	-344.82141	325.05533	1405.22559	-433.87878	446.45068	1111.08960	-401.77444	503.66479	860.68927	-288.48843	-21.36910	913.77380	-255.98032	263.67990	934.12720	-493.61453	154.10583	916.23175	-242.96719	-18.28028	536.20483	-334.14902	-49.70536	432.35202	-499.98663	45.12292	273.61993	-678.67212	9.39192	228.38419	-696.70862	85.84456	277.28333	-681.73730	21.40969	78.14662	-153.73900	213.09293	642.24225	-195.53342	263.86642	465.14410	-175.51031	179.85849	328.46030	-226.47847	234.07893	58.88594	-290.93365	177.22154	40.92028	-85.42114	223.35562	40.38710	-660.01746	26.70604	41.51986	-660.91742	53.11837	73.22130	-650.76990	91.24599	166.66853	-678.76385	109.16122	231.55504	-709.26398	41.85752	251.66399	-714.08331	7.75894	176.14545	-710.92267	-5.64946	109.13129	-41.96065	194.19537	33.86368	-72.90388	184.07532	43.37490	-169.25824	141.86646	48.11604	-252.28056	143.69984	42.25740	-261.77435	216.09785	38.09088	-189.90077	243.17963	32.32989	-126.30719	256.32117	37.41861	
362	3.008	-301.51846	104.36407	1709.02295	-186.69667	108.68410	1629.90552	-407.30139	111.49405	1636.25562	-338.46182	-83.38084	1395.63892	-474.46118	184.67093	1254.02649	-334.04083	-182.55121	1068.83167	-149.97580	-166.46242	883.37073	-333.10129	325.03690	1407.81030	-418.18939	446.89868	1111.85132	-381.43967	501.99228	862.08417	-277.56989	-20.73461	916.12378	-246.16129	264.43878	935.53253	-482.94254	154.67802	918.81384	-222.92305	-18.68130	541.12939	-310.71906	-50.67509	436.20615	-476.28244	46.18983	277.54523	-655.03650	11.24261	232.83971	-676.43719	89.65510	279.45758	-654.09131	20.81751	81.57152	-147.65552	212.12077	641.61646	-192.83351	264.30911	464.85580	-173.93274	180.36926	327.94772	-224.71043	232.96950	58.50927	-290.80103	176.94684	41.14732	-85.47646	223.43085	40.49122	-631.50024	26.86868	44.17531	-631.97729	52.57897	77.58554	-625.75800	91.86010	170.35767	-655.77545	110.68221	233.84926	-686.24115	43.91605	254.03905	-688.28009	8.14814	180.52379	-683.59143	-8.08270	114.27693	-42.22222	194.30089	33.84121	-72.91540	184.08238	43.39962	-169.41037	141.90016	48.22254	-252.28777	143.72906	42.29040	-262.00070	216.03328	38.22752	-189.95145	243.20789	32.36374	-126.37407	256.42365	37.41149	
363	3.017	-289.92291	104.17178	1711.10132	-175.45100	108.82193	1631.81946	-395.69971	111.18401	1638.83813	-327.45245	-83.61401	1397.85083	-463.29312	185.30307	1256.87732	-325.74005	-181.82491	1070.65198	-144.80888	-167.61375	881.34729	-320.86987	325.07309	1410.74048	-402.27914	446.95306	1112.97192	-360.17468	500.40393	863.86145	-266.93124	-20.18984	919.22424	-235.97662	265.34000	937.74878	-472.87558	154.47566	921.29602	-203.27847	-18.91773	546.85754	-287.84076	-51.51529	440.13361	-452.89758	47.11290	282.03186	-630.24109	12.66095	235.13040	-656.41455	91.99284	280.07584	-621.02887	19.79706	85.70689	-142.06184	211.63594	640.15063	-189.24994	264.16107	464.68198	-171.76752	180.78043	327.41739	-226.68048	234.01401	58.91367	-290.77808	176.69096	41.13204	-85.46426	223.61087	40.52390	-600.64642	24.75323	46.62455	-601.81110	51.43602	81.01599	-600.39850	92.96239	172.97992	-633.90253	112.40062	235.88283	-663.01440	45.06612	255.15349	-660.01837	7.55313	182.65959	-652.06793	-9.81636	115.87853	-42.28197	194.38040	33.83973	-72.98929	184.12535	43.37292	-169.58664	141.93152	48.21253	-252.30969	143.69781	42.33247	-262.24063	216.15845	38.39561	-190.00931	243.27939	32.37553	-126.41104	256.50259	37.45994	
364	3.025	-277.87906	104.09021	1713.44043	-163.94009	108.84375	1634.11975	-384.51141	110.85883	1641.21448	-317.03290	-83.90532	1399.68213	-452.58188	186.48779	1260.00366	-317.22247	-181.49535	1072.61963	-140.13199	-168.99263	879.38641	-308.95313	324.83517	1413.63428	-386.18045	447.38712	1114.02271	-337.88120	498.54443	865.72504	-256.03531	-19.44952	921.83063	-225.88997	266.20770	939.06836	-462.44525	155.03313	923.87836	-183.43880	-19.02559	552.58374	-265.41562	-52.51738	444.58334	-428.18900	48.12733	285.57501	-605.29315	13.06882	236.46992	-636.64740	91.81731	279.81995	-589.95123	18.45884	86.42248	-136.31039	211.31610	639.94519	-186.23793	264.04144	464.45389	-169.53001	181.15347	327.75562	-224.83141	232.91399	58.49054	-291.11584	176.88745	41.11766	-85.47512	223.62471	40.54171	-567.93646	22.63329	48.12204	-571.77142	49.77196	83.03945	-574.38336	94.03907	175.30560	-610.85864	113.38937	235.41991	-639.49310	45.47750	254.57745	-631.14935	7.00954	182.63075	-620.17682	-10.45376	115.99916	-42.34344	194.42676	33.84225	-73.01547	184.07875	43.31380	-169.55573	141.87708	48.07619	-252.31647	143.67300	42.36510	-262.26645	216.06950	38.43572	-190.08597	243.33113	32.44998	-126.43319	256.53964	37.45216																																																	-604.65112	13.78996	117.72721	
